<?xml version="1.0" encoding="utf-8"?><svg version="1.1" id="Layer_1" xmlns="http://www.w3.org/2000/svg" xmlns:xlink="http://www.w3.org/1999/xlink" x="0px" y="0px" viewBox="0 0 122.88 70.13" style="enable-background:new 0 0 122.88 70.13" xml:space="preserve"><g><path d="M107.66,15.48h11.88c0.93,0,1.76,0.38,2.36,0.98c0.6,0.6,0.98,1.45,0.98,2.36v32.51c0,0.92-0.38,1.76-0.98,2.35 c-0.6,0.6-1.44,0.98-2.35,0.98h-11.88v9.75c0,1.57-0.65,3.01-1.68,4.05c-1.04,1.04-2.47,1.69-4.05,1.69H5.73 c-1.57,0-3.01-0.65-4.05-1.68C0.65,67.41,0,65.98,0,64.4V5.73c0-1.58,0.64-3.01,1.68-4.05C2.72,0.64,4.15,0,5.73,0h96.2 c1.58,0,3.01,0.65,4.05,1.68c1.04,1.04,1.68,2.47,1.68,4.05V15.48L107.66,15.48z M117.22,21.14h-9.56V49h9.56V21.14L117.22,21.14z M102,51.83V18.31V5.73c0-0.01-0.01-0.03-0.03-0.05c-0.02-0.01-0.03-0.02-0.05-0.02H5.73c-0.02,0-0.03,0.01-0.05,0.02 C5.67,5.7,5.66,5.71,5.66,5.73V64.4c0,0.01,0.01,0.03,0.02,0.05c0.02,0.02,0.03,0.03,0.05,0.03h96.2c0.01,0,0.03-0.01,0.04-0.03 c0.02-0.02,0.03-0.03,0.03-0.04V51.83L102,51.83z"/></g></svg>